<svg xmlns="http://www.w3.org/2000/svg" width="1200" height="630" viewBox="0 0 1200 630" role="img" aria-label="Project preview">
  <defs>
    <linearGradient id="bg" x1="0" y1="0" x2="1" y2="1">
      <stop offset="0" stop-color="#0b1220" />
      <stop offset="1" stop-color="#111827" />
    </linearGradient>
    <linearGradient id="accent" x1="0" y1="0" x2="1" y2="0">
      <stop offset="0" stop-color="#60a5fa" />
      <stop offset="1" stop-color="#a78bfa" />
    </linearGradient>
    <filter id="softGlow" x="-50%" y="-50%" width="200%" height="200%">
      <feGaussianBlur stdDeviation="18" result="blur" />
      <feColorMatrix in="blur" type="matrix"
        values="1 0 0 0 0
                0 1 0 0 0
                0 0 1 0 0
                0 0 0 0.35 0" />
    </filter>
  </defs>

  <rect width="1200" height="630" fill="url(#bg)" />
  <circle cx="220" cy="130" r="90" fill="#3b82f6" opacity="0.25" filter="url(#softGlow)" />
  <circle cx="1000" cy="520" r="120" fill="#a78bfa" opacity="0.22" filter="url(#softGlow)" />
  <rect x="90" y="430" width="1020" height="10" rx="5" fill="url(#accent)" opacity="0.9" />

  <g fill="none" stroke="#93c5fd" opacity="0.32">
    <path d="M140 230 C240 120, 360 120, 460 230 S680 340, 780 230 980 120, 1080 230" stroke-width="6" />
    <path d="M140 290 C240 180, 360 180, 460 290 S680 400, 780 290 980 180, 1080 290" stroke-width="4" />
  </g>

  <text x="90" y="515" fill="#e5e7eb" font-size="54" font-family="ui-sans-serif, system-ui, -apple-system, Segoe UI, Roboto, Helvetica, Arial">
    Project
  </text>
  <text x="90" y="575" fill="#9ca3af" font-size="26" font-family="ui-sans-serif, system-ui, -apple-system, Segoe UI, Roboto, Helvetica, Arial">
    Preview image unavailable
  </text>
</svg>
