<svg xmlns="http://www.w3.org/2000/svg" width="1200" height="630" viewBox="0 0 1200 630" role="img" aria-label="EchoSense project preview">
  <defs>
    <linearGradient id="bg" x1="0" y1="0" x2="1" y2="1">
      <stop offset="0" stop-color="#071a2a" />
      <stop offset="1" stop-color="#0b1020" />
    </linearGradient>
    <linearGradient id="accent" x1="0" y1="0" x2="1" y2="0">
      <stop offset="0" stop-color="#22d3ee" />
      <stop offset="1" stop-color="#3b82f6" />
    </linearGradient>
    <filter id="softGlow" x="-50%" y="-50%" width="200%" height="200%">
      <feGaussianBlur stdDeviation="18" result="blur" />
      <feColorMatrix in="blur" type="matrix"
        values="1 0 0 0 0
                0 1 0 0 0
                0 0 1 0 0
                0 0 0 0.35 0" />
    </filter>
  </defs>

  <rect width="1200" height="630" fill="url(#bg)" />
  <circle cx="210" cy="160" r="110" fill="#22d3ee" opacity="0.18" filter="url(#softGlow)" />
  <circle cx="1020" cy="500" r="130" fill="#3b82f6" opacity="0.16" filter="url(#softGlow)" />

  <!-- Sound waves -->
  <g fill="none" stroke="url(#accent)" stroke-linecap="round" opacity="0.95">
    <path d="M250 320 C320 250, 410 250, 480 320 S640 390, 710 320 870 250, 940 320" stroke-width="10" />
    <path d="M250 365 C320 295, 410 295, 480 365 S640 435, 710 365 870 295, 940 365" stroke-width="7" opacity="0.8" />
    <path d="M250 410 C320 340, 410 340, 480 410 S640 480, 710 410 870 340, 940 410" stroke-width="5" opacity="0.6" />
  </g>

  <!-- Mic glyph -->
  <g transform="translate(118,210)" opacity="0.9">
    <rect x="0" y="0" width="90" height="160" rx="45" fill="#0ea5e9" opacity="0.25" />
    <rect x="22" y="20" width="46" height="92" rx="23" fill="#e5e7eb" opacity="0.9" />
    <path d="M45 120 v22" stroke="#e5e7eb" stroke-width="8" stroke-linecap="round" />
    <path d="M20 132 c0 18 11 34 25 34s25-16 25-34" fill="none" stroke="#e5e7eb" stroke-width="8" stroke-linecap="round" />
  </g>

  <text x="90" y="520" fill="#e5e7eb" font-size="64" font-weight="700"
    font-family="ui-sans-serif, system-ui, -apple-system, Segoe UI, Roboto, Helvetica, Arial">
    EchoSense
  </text>
  <text x="90" y="575" fill="#9ca3af" font-size="26"
    font-family="ui-sans-serif, system-ui, -apple-system, Segoe UI, Roboto, Helvetica, Arial">
    Audio signals • embeddings • retrieval
  </text>
</svg>
