<svg xmlns="http://www.w3.org/2000/svg" width="1200" height="630" viewBox="0 0 1200 630" role="img" aria-label="Neural-Translation project preview">
  <defs>
    <linearGradient id="bg" x1="0" y1="0" x2="1" y2="1">
      <stop offset="0" stop-color="#0c1330" />
      <stop offset="1" stop-color="#0b1020" />
    </linearGradient>
    <linearGradient id="accent" x1="0" y1="0" x2="1" y2="0">
      <stop offset="0" stop-color="#a78bfa" />
      <stop offset="1" stop-color="#60a5fa" />
    </linearGradient>
    <filter id="softGlow" x="-50%" y="-50%" width="200%" height="200%">
      <feGaussianBlur stdDeviation="18" result="blur" />
      <feColorMatrix in="blur" type="matrix"
        values="1 0 0 0 0
                0 1 0 0 0
                0 0 1 0 0
                0 0 0 0.35 0" />
    </filter>
  </defs>

  <rect width="1200" height="630" fill="url(#bg)" />
  <circle cx="240" cy="160" r="120" fill="#a78bfa" opacity="0.14" filter="url(#softGlow)" />
  <circle cx="1000" cy="510" r="150" fill="#60a5fa" opacity="0.12" filter="url(#softGlow)" />

  <!-- Translation blocks -->
  <g transform="translate(250,220)" opacity="0.95" fill="none" stroke="url(#accent)" stroke-width="10" stroke-linecap="round" stroke-linejoin="round">
    <rect x="0" y="0" width="340" height="190" rx="26" />
    <rect x="410" y="0" width="340" height="190" rx="26" opacity="0.9" />

    <path d="M340 95 H410" />
    <path d="M392 95 l-22 -14 v28 z" fill="#60a5fa" stroke="none" />

    <path d="M70 55 H270" opacity="0.55" stroke-width="8" />
    <path d="M70 95 H220" opacity="0.45" stroke-width="8" />
    <path d="M70 135 H250" opacity="0.35" stroke-width="8" />

    <path d="M480 55 H680" opacity="0.55" stroke-width="8" />
    <path d="M480 95 H630" opacity="0.45" stroke-width="8" />
    <path d="M480 135 H660" opacity="0.35" stroke-width="8" />
  </g>

  <!-- Mini neural nodes -->
  <g fill="#93c5fd" opacity="0.35">
    <circle cx="190" cy="330" r="10" />
    <circle cx="220" cy="300" r="8" />
    <circle cx="220" cy="360" r="8" />
    <circle cx="260" cy="330" r="10" />
    <path d="M190 330 L220 300 L260 330 L220 360 Z" fill="none" stroke="#93c5fd" stroke-width="4" opacity="0.35" />
  </g>

  <text x="90" y="520" fill="#e5e7eb" font-size="64" font-weight="700"
    font-family="ui-sans-serif, system-ui, -apple-system, Segoe UI, Roboto, Helvetica, Arial">
    Neural-Translation
  </text>
  <text x="90" y="575" fill="#9ca3af" font-size="26"
    font-family="ui-sans-serif, system-ui, -apple-system, Segoe UI, Roboto, Helvetica, Arial">
    Seq2Seq • attention • evaluation
  </text>
</svg>
