<svg xmlns="http://www.w3.org/2000/svg" width="1200" height="630" viewBox="0 0 1200 630" role="img" aria-label="YouTube-Llama project preview">
  <defs>
    <linearGradient id="bg" x1="0" y1="0" x2="1" y2="1">
      <stop offset="0" stop-color="#22050a" />
      <stop offset="1" stop-color="#0b1020" />
    </linearGradient>
    <linearGradient id="accent" x1="0" y1="0" x2="1" y2="0">
      <stop offset="0" stop-color="#ef4444" />
      <stop offset="1" stop-color="#f97316" />
    </linearGradient>
    <filter id="softGlow" x="-50%" y="-50%" width="200%" height="200%">
      <feGaussianBlur stdDeviation="18" result="blur" />
      <feColorMatrix in="blur" type="matrix"
        values="1 0 0 0 0
                0 1 0 0 0
                0 0 1 0 0
                0 0 0 0.35 0" />
    </filter>
  </defs>

  <rect width="1200" height="630" fill="url(#bg)" />
  <circle cx="230" cy="170" r="120" fill="#ef4444" opacity="0.14" filter="url(#softGlow)" />
  <circle cx="1000" cy="500" r="150" fill="#f97316" opacity="0.12" filter="url(#softGlow)" />

  <!-- Video player tile -->
  <g transform="translate(250,200)" opacity="0.95">
    <rect x="0" y="0" width="720" height="300" rx="26" fill="#0b1220" stroke="#fb7185" stroke-width="3" opacity="0.95" />
    <rect x="36" y="36" width="300" height="20" rx="10" fill="#334155" opacity="0.7" />
    <rect x="36" y="74" width="420" height="16" rx="8" fill="#334155" opacity="0.55" />
    <rect x="36" y="104" width="380" height="16" rx="8" fill="#334155" opacity="0.45" />

    <rect x="470" y="58" width="210" height="180" rx="18" fill="#111827" stroke="#fca5a5" stroke-width="2" opacity="0.9" />
    <path d="M560 110 L560 186 L640 148 Z" fill="url(#accent)" />
  </g>

  <!-- Llama-ish silhouette -->
  <g transform="translate(120,285)" opacity="0.85">
    <path d="M0 140 C20 60, 60 40, 120 38 C160 36, 180 18, 208 0 C230 30, 235 60, 240 88 C260 96, 276 110, 288 132 C302 160, 295 190, 268 208 C246 224, 212 226, 190 210 C172 238, 146 254, 114 258 C66 264, 28 236, 10 200 C2 184, -2 164, 0 140 Z"
      fill="#e5e7eb" opacity="0.18" />
    <circle cx="176" cy="94" r="6" fill="#e5e7eb" opacity="0.55" />
  </g>

  <text x="90" y="520" fill="#e5e7eb" font-size="64" font-weight="700"
    font-family="ui-sans-serif, system-ui, -apple-system, Segoe UI, Roboto, Helvetica, Arial">
    YouTube-Llama
  </text>
  <text x="90" y="575" fill="#9ca3af" font-size="26"
    font-family="ui-sans-serif, system-ui, -apple-system, Segoe UI, Roboto, Helvetica, Arial">
    Video → text • summarization • LLM workflows
  </text>
</svg>
